<svg width="757.38125px" height="243.2px" xmlns="http://www.w3.org/2000/svg" viewBox="-128.690625 -46.599999999999994 757.38125 243.2" style="background: none;" preserveAspectRatio="xMidYMid"><defs><filter id="editing-cake" x="-100%" y="-100%" width="300%" height="300%"><feFlood flood-color="#2d1500" result="flood-shadow"></feFlood><feFlood flood-color="#894619"></feFlood><feComposite operator="in" in2="SourceAlpha"></feComposite><feConvolveMatrix order="7,10" divisor="1" result="conv" kernelMatrix="0 0 0 1 0 0 0 0 0 1 0 1 0 0 0 0 1 0 1 0 0 0 1 0 0 0 1 0 0 1 0 0 0 1 0 0 1 0 0 0 1 0 1 0 0 0 0 0 1 1 0 0 0 0 0 1 0 1 1 0 1 1 0 0 0 0 1 0 0 0 "></feConvolveMatrix><feGaussianBlur stdDeviation="0.5"></feGaussianBlur><feOffset dy="4" result="offset"></feOffset><feComposite operator="in" in="flood-shadow" in2="offset"></feComposite><feGaussianBlur stdDeviation="4"></feGaussianBlur><feComponentTransfer><feFuncA type="linear" slope="0.7" intercept="-0.2"></feFuncA></feComponentTransfer><feOffset dy="4" result="shadow"></feOffset><feGaussianBlur in="SourceGraphic" stdDeviation="0.5"></feGaussianBlur><feOffset dy="0" result="x0"></feOffset><feGaussianBlur in="SourceGraphic" stdDeviation="1"></feGaussianBlur><feComponentTransfer><feFuncA type="linear" slope="0.8" intercept="-.01"></feFuncA></feComponentTransfer><feOffset dy="1" result="x1"></feOffset><feGaussianBlur in="SourceGraphic" stdDeviation="2"></feGaussianBlur><feComponentTransfer><feFuncA type="linear" slope="0.7" intercept="-.01"></feFuncA></feComponentTransfer><feOffset dy="2" result="x2"></feOffset><feGaussianBlur in="SourceGraphic" stdDeviation="3"></feGaussianBlur><feComponentTransfer><feFuncA type="linear" slope="0.6" intercept="-.01"></feFuncA></feComponentTransfer><feOffset dy="3" result="x3"></feOffset><feMerge><feMergeNode in="shadow"></feMergeNode><feMergeNode in="offset"></feMergeNode><feMergeNode in="x3"></feMergeNode><feMergeNode in="x2"></feMergeNode><feMergeNode in="x1"></feMergeNode><feMergeNode in="x0"></feMergeNode></feMerge></filter></defs><g filter="url(#editing-cake)"><g transform="translate(-21.390033960342407, 99.63999843597412)"><path d="M38.02-9.92L38.02-2.30L38.02-2.30Q38.02-0.77 37.31-0.06L37.31-0.06L37.31-0.06Q36.61 0.64 35.07 0.64L35.07 0.64L19.46 0.64L19.46 0.64Q11.07 0.64 7.07-2.75L7.07-2.75L7.07-2.75Q3.07-6.14 3.07-13.06L3.07-13.06L3.07-32.96L3.07-32.96Q3.07-39.94 7.07-43.33L7.07-43.33L7.07-43.33Q11.07-46.72 19.46-46.72L19.46-46.72L35.07-46.72L35.07-46.72Q36.61-46.72 37.31-46.02L37.31-46.02L37.31-46.02Q38.02-45.31 38.02-43.78L38.02-43.78L38.02-36.03L38.02-36.03Q38.02-34.50 37.31-33.79L37.31-33.79L37.31-33.79Q36.61-33.09 35.07-33.09L35.07-33.09L22.21-33.09L22.21-33.09Q20.61-33.09 19.78-32.48L19.78-32.48L19.78-32.48Q18.94-31.87 18.94-30.53L18.94-30.53L18.94-15.30L18.94-15.30Q18.94-13.95 19.78-13.41L19.78-13.41L19.78-13.41Q20.61-12.86 22.21-12.86L22.21-12.86L35.07-12.86L35.07-12.86Q36.61-12.86 37.31-12.16L37.31-12.16L37.31-12.16Q38.02-11.46 38.02-9.92L38.02-9.92ZM19.46 0L35.07 0L35.07 0Q36.29 0 36.83-0.54L36.83-0.54L36.83-0.54Q37.38-1.09 37.38-2.30L37.38-2.30L37.38-9.92L37.38-9.92Q37.38-11.14 36.83-11.68L36.83-11.68L36.83-11.68Q36.29-12.22 35.07-12.22L35.07-12.22L22.21-12.22L22.21-12.22Q20.22-12.22 19.26-12.96L19.26-12.96L19.26-12.96Q18.30-13.70 18.30-15.30L18.30-15.30L18.30-30.53L18.30-30.53Q18.30-32.13 19.26-32.93L19.26-32.93L19.26-32.93Q20.22-33.73 22.21-33.73L22.21-33.73L35.07-33.73L35.07-33.73Q36.29-33.73 36.83-34.27L36.83-34.27L36.83-34.27Q37.38-34.82 37.38-36.03L37.38-36.03L37.38-43.78L37.38-43.78Q37.38-44.99 36.83-45.54L36.83-45.54L36.83-45.54Q36.29-46.08 35.07-46.08L35.07-46.08L19.46-46.08L19.46-46.08Q11.46-46.08 7.58-42.85L7.58-42.85L7.58-42.85Q3.71-39.62 3.71-32.96L3.71-32.96L3.71-13.06L3.71-13.06Q3.71-6.40 7.58-3.20L7.58-3.20L7.58-3.20Q11.46 0 19.46 0L19.46 0ZM20.86-6.40L31.55-6.40L31.55-5.76L20.86-5.76L20.86-5.76Q14.66-5.76 12.64-7.68L12.64-7.68L12.64-7.68Q10.62-9.60 10.62-14.02L10.62-14.02L10.62-31.94L10.62-31.94Q10.62-36.48 12.67-38.40L12.67-38.40L12.67-38.40Q14.72-40.32 20.86-40.32L20.86-40.32L31.55-40.32L31.55-39.68L20.86-39.68L20.86-39.68Q15.23-39.68 13.25-37.92L13.25-37.92L13.25-37.92Q11.26-36.16 11.26-31.94L11.26-31.94L11.26-14.02L11.26-14.02Q11.26-9.86 13.18-8.13L13.18-8.13L13.18-8.13Q15.10-6.40 20.86-6.40L20.86-6.40ZM84.29-33.92L84.29-33.92L84.29-12.10L84.29-12.10Q84.29-9.09 83.46-6.56L83.46-6.56L83.46-6.56Q82.62-4.03 80.35-2.24L80.35-2.24L80.35-2.24Q78.08-0.45 74.08 0.58L74.08 0.58L74.08 0.58Q70.08 1.60 63.81 1.60L63.81 1.60L63.81 1.60Q57.54 1.60 53.54 0.58L53.54 0.58L53.54 0.58Q49.54-0.45 47.26-2.24L47.26-2.24L47.26-2.24Q44.99-4.03 44.13-6.56L44.13-6.56L44.13-6.56Q43.26-9.09 43.26-12.10L43.26-12.10L43.26-33.92L43.26-33.92Q43.26-36.93 44.13-39.46L44.13-39.46L44.13-39.46Q44.99-41.98 47.26-43.81L47.26-43.81L47.26-43.81Q49.54-45.63 53.54-46.66L53.54-46.66L53.54-46.66Q57.54-47.68 63.81-47.68L63.81-47.68L63.81-47.68Q70.08-47.68 74.08-46.66L74.08-46.66L74.08-46.66Q78.08-45.63 80.35-43.81L80.35-43.81L80.35-43.81Q82.62-41.98 83.46-39.46L83.46-39.46L83.46-39.46Q84.29-36.93 84.29-33.92ZM83.65-12.10L83.65-12.10L83.65-33.92L83.65-33.92Q83.65-36.86 82.78-39.26L82.78-39.26L82.78-39.26Q81.92-41.66 79.71-43.39L79.71-43.39L79.71-43.39Q77.50-45.12 73.63-46.08L73.63-46.08L73.63-46.08Q69.76-47.04 63.81-47.04L63.81-47.04L63.81-47.04Q57.86-47.04 53.95-46.08L53.95-46.08L53.95-46.08Q50.05-45.12 47.84-43.39L47.84-43.39L47.84-43.39Q45.63-41.66 44.77-39.26L44.77-39.26L44.77-39.26Q43.90-36.86 43.90-33.92L43.90-33.92L43.90-12.10L43.90-12.10Q43.90-9.15 44.77-6.75L44.77-6.75L44.77-6.75Q45.63-4.35 47.84-2.66L47.84-2.66L47.84-2.66Q50.05-0.96 53.95 0L53.95 0L53.95 0Q57.86 0.96 63.81 0.96L63.81 0.96L63.81 0.96Q69.76 0.96 73.63 0L73.63 0L73.63 0Q77.50-0.96 79.71-2.66L79.71-2.66L79.71-2.66Q81.92-4.35 82.78-6.75L82.78-6.75L82.78-6.75Q83.65-9.15 83.65-12.10ZM76.67-32.45L76.67-13.57L76.67-13.57Q76.67-9.73 73.92-7.33L73.92-7.33L73.92-7.33Q71.17-4.93 63.68-4.93L63.68-4.93L63.68-4.93Q56.19-4.93 53.50-7.33L53.50-7.33L53.50-7.33Q50.82-9.73 50.82-13.57L50.82-13.57L50.82-32.45L50.82-32.45Q50.82-36.29 53.50-38.69L53.50-38.69L53.50-38.69Q56.19-41.09 63.68-41.09L63.68-41.09L63.68-41.09Q71.17-41.09 73.92-38.69L73.92-38.69L73.92-38.69Q76.67-36.29 76.67-32.45L76.67-32.45ZM51.46-32.45L51.46-13.57L51.46-13.57Q51.46-9.98 54.02-7.78L54.02-7.78L54.02-7.78Q56.58-5.57 63.68-5.57L63.68-5.57L63.68-5.57Q70.78-5.57 73.41-7.78L73.41-7.78L73.41-7.78Q76.03-9.98 76.03-13.57L76.03-13.57L76.03-32.45L76.03-32.45Q76.03-36.03 73.41-38.24L73.41-38.24L73.41-38.24Q70.78-40.45 63.68-40.45L63.68-40.45L63.68-40.45Q56.58-40.45 54.02-38.24L54.02-38.24L54.02-38.24Q51.46-36.03 51.46-32.45L51.46-32.45ZM58.43-14.40L58.43-14.40L58.43-31.62L58.43-31.62Q58.43-32.83 59.39-33.70L59.39-33.70L59.39-33.70Q60.35-34.56 63.81-34.56L63.81-34.56L63.81-34.56Q67.26-34.56 68.22-33.70L68.22-33.70L68.22-33.70Q69.18-32.83 69.18-31.62L69.18-31.62L69.18-14.40L69.18-14.40Q69.18-13.12 68.22-12.26L68.22-12.26L68.22-12.26Q67.26-11.39 63.81-11.39L63.81-11.39L63.81-11.39Q60.35-11.39 59.39-12.26L59.39-12.26L59.39-12.26Q58.43-13.12 58.43-14.40ZM59.07-31.62L59.07-31.62L59.07-14.40L59.07-14.40Q59.07-13.25 60.06-12.64L60.06-12.64L60.06-12.64Q61.06-12.03 63.81-12.03L63.81-12.03L63.81-12.03Q66.56-12.03 67.55-12.64L67.55-12.64L67.55-12.64Q68.54-13.25 68.54-14.40L68.54-14.40L68.54-31.62L68.54-31.62Q68.54-32.70 67.55-33.31L67.55-33.31L67.55-33.31Q66.56-33.92 63.81-33.92L63.81-33.92L63.81-33.92Q61.12-33.92 60.10-33.31L60.10-33.31L60.10-33.31Q59.07-32.70 59.07-31.62ZM100.22-39.81L100.22-39.81L123.78-13.31L123.78-40.32L124.42-40.32L124.42-5.76L123.78-5.76L123.78-12.35L99.58-39.49L99.58-39.49Q99.52-39.55 99.42-39.62L99.42-39.62L99.42-39.62Q99.33-39.68 99.26-39.68L99.26-39.68L99.26-39.68Q99.20-39.68 99.17-39.62L99.17-39.62L99.17-39.62Q99.14-39.55 99.14-39.49L99.14-39.49L99.14-5.76L98.50-5.76L98.50-39.62L98.50-39.62Q98.50-40 98.75-40.19L98.75-40.19L98.75-40.19Q99.01-40.38 99.26-40.38L99.26-40.38L99.26-40.38Q99.52-40.38 99.71-40.26L99.71-40.26L99.71-40.26Q99.90-40.13 100.22-39.81ZM94.08 0L103.68 0L103.68 0Q104.90 0 105.44-0.54L105.44-0.54L105.44-0.54Q105.98-1.09 105.98-2.30L105.98-2.30L105.98-23.42L116.93-10.18L116.93-2.30L116.93-2.30Q116.93-1.09 117.47-0.54L117.47-0.54L117.47-0.54Q118.02 0 119.23 0L119.23 0L128.83 0L128.83 0Q130.05 0 130.59-0.54L130.59-0.54L130.59-0.54Q131.14-1.09 131.14-2.30L131.14-2.30L131.14-43.78L131.14-43.78Q131.14-44.99 130.59-45.54L130.59-45.54L130.59-45.54Q130.05-46.08 128.83-46.08L128.83-46.08L119.23-46.08L119.23-46.08Q118.02-46.08 117.47-45.54L117.47-45.54L117.47-45.54Q116.93-44.99 116.93-43.78L116.93-43.78L116.93-30.14L104.51-44.35L104.51-44.35Q103.68-45.31 102.82-45.70L102.82-45.70L102.82-45.70Q101.95-46.08 100.74-46.08L100.74-46.08L94.08-46.08L94.08-46.08Q92.86-46.08 92.32-45.54L92.32-45.54L92.32-45.54Q91.78-44.99 91.78-43.78L91.78-43.78L91.78-2.30L91.78-2.30Q91.78-1.09 92.32-0.54L92.32-0.54L92.32-0.54Q92.86 0 94.08 0L94.08 0ZM103.68 0.64L103.68 0.64L94.08 0.64L94.08 0.64Q92.54 0.64 91.84-0.06L91.84-0.06L91.84-0.06Q91.14-0.77 91.14-2.30L91.14-2.30L91.14-43.78L91.14-43.78Q91.14-45.31 91.84-46.02L91.84-46.02L91.84-46.02Q92.54-46.72 94.08-46.72L94.08-46.72L100.74-46.72L100.74-46.72Q102.14-46.72 103.10-46.27L103.10-46.27L103.10-46.27Q104.06-45.82 105.02-44.80L105.02-44.80L116.29-31.94L116.29-43.78L116.29-43.78Q116.29-45.31 116.99-46.02L116.99-46.02L116.99-46.02Q117.70-46.72 119.23-46.72L119.23-46.72L128.83-46.72L128.83-46.72Q130.37-46.72 131.07-46.02L131.07-46.02L131.07-46.02Q131.78-45.31 131.78-43.78L131.78-43.78L131.78-2.30L131.78-2.30Q131.78-0.77 131.07-0.06L131.07-0.06L131.07-0.06Q130.37 0.64 128.83 0.64L128.83 0.64L119.23 0.64L119.23 0.64Q117.70 0.64 116.99-0.06L116.99-0.06L116.99-0.06Q116.29-0.77 116.29-2.30L116.29-2.30L116.29-9.92L106.62-21.63L106.62-2.30L106.62-2.30Q106.62-0.77 105.92-0.06L105.92-0.06L105.92-0.06Q105.22 0.64 103.68 0.64ZM173.57-9.92L173.57-2.30L173.57-2.30Q173.57-0.77 172.86-0.06L172.86-0.06L172.86-0.06Q172.16 0.64 170.62 0.64L170.62 0.64L155.01 0.64L155.01 0.64Q146.62 0.64 142.62-2.75L142.62-2.75L142.62-2.75Q138.62-6.14 138.62-13.06L138.62-13.06L138.62-32.96L138.62-32.96Q138.62-39.94 142.62-43.33L142.62-43.33L142.62-43.33Q146.62-46.72 155.01-46.72L155.01-46.72L170.62-46.72L170.62-46.72Q172.16-46.72 172.86-46.02L172.86-46.02L172.86-46.02Q173.57-45.31 173.57-43.78L173.57-43.78L173.57-36.03L173.57-36.03Q173.57-34.50 172.86-33.79L172.86-33.79L172.86-33.79Q172.16-33.09 170.62-33.09L170.62-33.09L157.76-33.09L157.76-33.09Q156.16-33.09 155.33-32.48L155.33-32.48L155.33-32.48Q154.50-31.87 154.50-30.53L154.50-30.53L154.50-15.30L154.50-15.30Q154.50-13.95 155.33-13.41L155.33-13.41L155.33-13.41Q156.16-12.86 157.76-12.86L157.76-12.86L170.62-12.86L170.62-12.86Q172.16-12.86 172.86-12.16L172.86-12.16L172.86-12.16Q173.57-11.46 173.57-9.92L173.57-9.92ZM155.01 0L170.62 0L170.62 0Q171.84 0 172.38-0.54L172.38-0.54L172.38-0.54Q172.93-1.09 172.93-2.30L172.93-2.30L172.93-9.92L172.93-9.92Q172.93-11.14 172.38-11.68L172.38-11.68L172.38-11.68Q171.84-12.22 170.62-12.22L170.62-12.22L157.76-12.22L157.76-12.22Q155.78-12.22 154.82-12.96L154.82-12.96L154.82-12.96Q153.86-13.70 153.86-15.30L153.86-15.30L153.86-30.53L153.86-30.53Q153.86-32.13 154.82-32.93L154.82-32.93L154.82-32.93Q155.78-33.73 157.76-33.73L157.76-33.73L170.62-33.73L170.62-33.73Q171.84-33.73 172.38-34.27L172.38-34.27L172.38-34.27Q172.93-34.82 172.93-36.03L172.93-36.03L172.93-43.78L172.93-43.78Q172.93-44.99 172.38-45.54L172.38-45.54L172.38-45.54Q171.84-46.08 170.62-46.08L170.62-46.08L155.01-46.08L155.01-46.08Q147.01-46.08 143.14-42.85L143.14-42.85L143.14-42.85Q139.26-39.62 139.26-32.96L139.26-32.96L139.26-13.06L139.26-13.06Q139.26-6.40 143.14-3.20L143.14-3.20L143.14-3.20Q147.01 0 155.01 0L155.01 0ZM156.42-6.40L167.10-6.40L167.10-5.76L156.42-5.76L156.42-5.76Q150.21-5.76 148.19-7.68L148.19-7.68L148.19-7.68Q146.18-9.60 146.18-14.02L146.18-14.02L146.18-31.94L146.18-31.94Q146.18-36.48 148.22-38.40L148.22-38.40L148.22-38.40Q150.27-40.32 156.42-40.32L156.42-40.32L167.10-40.32L167.10-39.68L156.42-39.68L156.42-39.68Q150.78-39.68 148.80-37.92L148.80-37.92L148.80-37.92Q146.82-36.16 146.82-31.94L146.82-31.94L146.82-14.02L146.82-14.02Q146.82-9.86 148.74-8.13L148.74-8.13L148.74-8.13Q150.66-6.40 156.42-6.40L156.42-6.40ZM201.66-39.68L201.66-39.68L187.71-39.68L187.71-21.18L201.66-21.18L201.66-21.18Q205.63-21.18 206.98-23.10L206.98-23.10L206.98-23.10Q208.32-25.02 208.32-28.54L208.32-28.54L208.32-33.02L208.32-33.02Q208.32-35.97 206.69-37.82L206.69-37.82L206.69-37.82Q205.06-39.68 201.66-39.68ZM194.62-26.37L194.62-34.56L199.42-34.56L199.42-34.56Q201.09-34.56 201.66-33.70L201.66-33.70L201.66-33.70Q202.24-32.83 202.24-31.55L202.24-31.55L202.24-29.38L202.24-29.38Q202.24-28.10 201.66-27.23L201.66-27.23L201.66-27.23Q201.09-26.37 199.42-26.37L199.42-26.37L194.62-26.37ZM199.42-33.92L199.42-33.92L195.26-33.92L195.26-27.01L199.42-27.01L199.42-27.01Q200.77-27.01 201.18-27.68L201.18-27.68L201.18-27.68Q201.60-28.35 201.60-29.38L201.60-29.38L201.60-31.55L201.60-31.55Q201.60-32.58 201.18-33.25L201.18-33.25L201.18-33.25Q200.77-33.92 199.42-33.92ZM187.71-20.61L187.71-5.76L187.07-5.76L187.07-40.32L201.66-40.32L201.66-40.32Q205.38-40.32 207.17-38.24L207.17-38.24L207.17-38.24Q208.96-36.16 208.96-33.02L208.96-33.02L208.96-28.61L208.96-28.61Q208.96-25.66 208.19-23.78L208.19-23.78L208.19-23.78Q207.42-21.89 205.12-21.18L205.12-21.18L205.82-21.18L205.82-21.18Q209.73-21.18 211.65-19.42L211.65-19.42L211.65-19.42Q213.57-17.66 213.57-14.34L213.57-14.34L213.57-5.76L212.93-5.76L212.93-14.34L212.93-14.34Q212.93-17.47 211.20-19.04L211.20-19.04L211.20-19.04Q209.47-20.61 205.82-20.61L205.82-20.61L187.71-20.61ZM182.46 0L192.32 0L192.32 0Q193.54 0 194.08-0.54L194.08-0.54L194.08-0.54Q194.62-1.09 194.62-2.30L194.62-2.30L194.62-14.85L203.58-14.85L203.58-14.85Q204.93-14.85 205.47-14.18L205.47-14.18L205.47-14.18Q206.02-13.50 206.02-12.10L206.02-12.10L206.02-2.30L206.02-2.30Q206.02-1.09 206.56-0.54L206.56-0.54L206.56-0.54Q207.10 0 208.32 0L208.32 0L218.24 0L218.24 0Q219.46 0 220-0.54L220-0.54L220-0.54Q220.54-1.09 220.54-2.30L220.54-2.30L220.54-15.87L220.54-15.87Q220.54-19.90 218.40-22.34L218.40-22.34L218.40-22.34Q216.26-24.77 212.80-25.15L212.80-25.15L212.80-25.15Q214.78-25.98 215.58-27.87L215.58-27.87L215.58-27.87Q216.38-29.76 216.38-32.45L216.38-32.45L216.38-35.39L216.38-35.39Q216.38-40.13 213.66-43.10L213.66-43.10L213.66-43.10Q210.94-46.08 203.78-46.08L203.78-46.08L182.46-46.08L182.46-46.08Q181.25-46.08 180.70-45.54L180.70-45.54L180.70-45.54Q180.16-44.99 180.16-43.78L180.16-43.78L180.16-2.30L180.16-2.30Q180.16-1.09 180.70-0.54L180.70-0.54L180.70-0.54Q181.25 0 182.46 0L182.46 0ZM192.32 0.64L192.32 0.64L182.46 0.64L182.46 0.64Q180.93 0.64 180.22-0.06L180.22-0.06L180.22-0.06Q179.52-0.77 179.52-2.30L179.52-2.30L179.52-43.78L179.52-43.78Q179.52-45.31 180.22-46.02L180.22-46.02L180.22-46.02Q180.93-46.72 182.46-46.72L182.46-46.72L203.78-46.72L203.78-46.72Q211.39-46.72 214.21-43.55L214.21-43.55L214.21-43.55Q217.02-40.38 217.02-35.39L217.02-35.39L217.02-32.45L217.02-32.45Q217.02-30.08 216.45-28.32L216.45-28.32L216.45-28.32Q215.87-26.56 214.53-25.47L214.53-25.47L214.53-25.47Q217.54-24.64 219.36-22.14L219.36-22.14L219.36-22.14Q221.18-19.65 221.18-15.87L221.18-15.87L221.18-2.30L221.18-2.30Q221.18-0.77 220.48-0.06L220.48-0.06L220.48-0.06Q219.78 0.64 218.24 0.64L218.24 0.64L208.32 0.64L208.32 0.64Q206.78 0.64 206.08-0.06L206.08-0.06L206.08-0.06Q205.38-0.77 205.38-2.30L205.38-2.30L205.38-12.10L205.38-12.10Q205.38-13.12 204.99-13.66L204.99-13.66L204.99-13.66Q204.61-14.21 203.58-14.21L203.58-14.21L195.26-14.21L195.26-2.30L195.26-2.30Q195.26-0.77 194.56-0.06L194.56-0.06L194.56-0.06Q193.86 0.64 192.32 0.64ZM259.71 0.64L230.02 0.64L230.02 0.64Q228.48 0.64 227.78-0.06L227.78-0.06L227.78-0.06Q227.07-0.77 227.07-2.30L227.07-2.30L227.07-43.78L227.07-43.78Q227.07-45.31 227.78-46.02L227.78-46.02L227.78-46.02Q228.48-46.72 230.02-46.72L230.02-46.72L259.71-46.72L259.71-46.72Q261.25-46.72 261.95-46.02L261.95-46.02L261.95-46.02Q262.66-45.31 262.66-43.78L262.66-43.78L262.66-36.29L262.66-36.29Q262.66-34.75 261.95-34.05L261.95-34.05L261.95-34.05Q261.25-33.34 259.71-33.34L259.71-33.34L242.69-33.34L242.69-29.70L254.53-29.70L254.53-29.70Q256.06-29.70 256.77-28.99L256.77-28.99L256.77-28.99Q257.47-28.29 257.47-26.75L257.47-26.75L257.47-19.90L257.47-19.90Q257.47-18.37 256.77-17.66L256.77-17.66L256.77-17.66Q256.06-16.96 254.53-16.96L254.53-16.96L242.69-16.96L242.69-12.74L259.71-12.74L259.71-12.74Q261.25-12.74 261.95-12.03L261.95-12.03L261.95-12.03Q262.66-11.33 262.66-9.79L262.66-9.79L262.66-2.30L262.66-2.30Q262.66-0.77 261.95-0.06L261.95-0.06L261.95-0.06Q261.25 0.64 259.71 0.64L259.71 0.64ZM230.02 0L259.71 0L259.71 0Q260.93 0 261.47-0.54L261.47-0.54L261.47-0.54Q262.02-1.09 262.02-2.30L262.02-2.30L262.02-9.79L262.02-9.79Q262.02-11.01 261.47-11.55L261.47-11.55L261.47-11.55Q260.93-12.10 259.71-12.10L259.71-12.10L242.05-12.10L242.05-17.60L254.53-17.60L254.53-17.60Q255.74-17.60 256.29-18.14L256.29-18.14L256.29-18.14Q256.83-18.69 256.83-19.90L256.83-19.90L256.83-26.75L256.83-26.75Q256.83-27.97 256.29-28.51L256.29-28.51L256.29-28.51Q255.74-29.06 254.53-29.06L254.53-29.06L242.05-29.06L242.05-33.98L259.71-33.98L259.71-33.98Q260.93-33.98 261.47-34.53L261.47-34.53L261.47-34.53Q262.02-35.07 262.02-36.29L262.02-36.29L262.02-43.78L262.02-43.78Q262.02-44.99 261.47-45.54L261.47-45.54L261.47-45.54Q260.93-46.08 259.71-46.08L259.71-46.08L230.02-46.08L230.02-46.08Q228.80-46.08 228.26-45.54L228.26-45.54L228.26-45.54Q227.71-44.99 227.71-43.78L227.71-43.78L227.71-2.30L227.71-2.30Q227.71-1.09 228.26-0.54L228.26-0.54L228.26-0.54Q228.80 0 230.02 0L230.02 0ZM235.33-6.40L256.26-6.40L256.26-5.76L234.69-5.76L234.69-40.32L256.26-40.32L256.26-39.68L235.33-39.68L235.33-23.62L251.07-23.62L251.07-22.98L235.33-22.98L235.33-6.40ZM291.33 0.64L280.96 0.64L280.96 0.64Q279.42 0.64 278.72-0.06L278.72-0.06L278.72-0.06Q278.02-0.77 278.02-2.30L278.02-2.30L278.02-33.09L269.25-33.09L269.25-33.09Q267.71-33.09 267.01-33.79L267.01-33.79L267.01-33.79Q266.30-34.50 266.30-36.03L266.30-36.03L266.30-43.78L266.30-43.78Q266.30-45.31 267.01-46.02L267.01-46.02L267.01-46.02Q267.71-46.72 269.25-46.72L269.25-46.72L303.04-46.72L303.04-46.72Q304.58-46.72 305.28-46.02L305.28-46.02L305.28-46.02Q305.98-45.31 305.98-43.78L305.98-43.78L305.98-36.03L305.98-36.03Q305.98-34.50 305.28-33.79L305.28-33.79L305.28-33.79Q304.58-33.09 303.04-33.09L303.04-33.09L294.27-33.09L294.27-2.30L294.27-2.30Q294.27-0.77 293.57-0.06L293.57-0.06L293.57-0.06Q292.86 0.64 291.33 0.64L291.33 0.64ZM280.96 0L291.33 0L291.33 0Q292.54 0 293.09-0.54L293.09-0.54L293.09-0.54Q293.63-1.09 293.63-2.30L293.63-2.30L293.63-33.73L303.04-33.73L303.04-33.73Q304.26-33.73 304.80-34.27L304.80-34.27L304.80-34.27Q305.34-34.82 305.34-36.03L305.34-36.03L305.34-43.78L305.34-43.78Q305.34-44.99 304.80-45.54L304.80-45.54L304.80-45.54Q304.26-46.08 303.04-46.08L303.04-46.08L269.25-46.08L269.25-46.08Q268.03-46.08 267.49-45.54L267.49-45.54L267.49-45.54Q266.94-44.99 266.94-43.78L266.94-43.78L266.94-36.03L266.94-36.03Q266.94-34.82 267.49-34.27L267.49-34.27L267.49-34.27Q268.03-33.73 269.25-33.73L269.25-33.73L278.66-33.73L278.66-2.30L278.66-2.30Q278.66-1.09 279.20-0.54L279.20-0.54L279.20-0.54Q279.74 0 280.96 0L280.96 0ZM286.46-5.76L285.82-5.76L285.82-39.68L272.70-39.68L272.70-40.32L299.58-40.32L299.58-39.68L286.46-39.68L286.46-5.76ZM343.55 0.64L313.86 0.64L313.86 0.64Q312.32 0.64 311.62-0.06L311.62-0.06L311.62-0.06Q310.91-0.77 310.91-2.30L310.91-2.30L310.91-43.78L310.91-43.78Q310.91-45.31 311.62-46.02L311.62-46.02L311.62-46.02Q312.32-46.72 313.86-46.72L313.86-46.72L343.55-46.72L343.55-46.72Q345.09-46.72 345.79-46.02L345.79-46.02L345.79-46.02Q346.50-45.31 346.50-43.78L346.50-43.78L346.50-36.29L346.50-36.29Q346.50-34.75 345.79-34.05L345.79-34.05L345.79-34.05Q345.09-33.34 343.55-33.34L343.55-33.34L326.53-33.34L326.53-29.70L338.37-29.70L338.37-29.70Q339.90-29.70 340.61-28.99L340.61-28.99L340.61-28.99Q341.31-28.29 341.31-26.75L341.31-26.75L341.31-19.90L341.31-19.90Q341.31-18.37 340.61-17.66L340.61-17.66L340.61-17.66Q339.90-16.96 338.37-16.96L338.37-16.96L326.53-16.96L326.53-12.74L343.55-12.74L343.55-12.74Q345.09-12.74 345.79-12.03L345.79-12.03L345.79-12.03Q346.50-11.33 346.50-9.79L346.50-9.79L346.50-2.30L346.50-2.30Q346.50-0.77 345.79-0.06L345.79-0.06L345.79-0.06Q345.09 0.64 343.55 0.64L343.55 0.64ZM313.86 0L343.55 0L343.55 0Q344.77 0 345.31-0.54L345.31-0.54L345.31-0.54Q345.86-1.09 345.86-2.30L345.86-2.30L345.86-9.79L345.86-9.79Q345.86-11.01 345.31-11.55L345.31-11.55L345.31-11.55Q344.77-12.10 343.55-12.10L343.55-12.10L325.89-12.10L325.89-17.60L338.37-17.60L338.37-17.60Q339.58-17.60 340.13-18.14L340.13-18.14L340.13-18.14Q340.67-18.69 340.67-19.90L340.67-19.90L340.67-26.75L340.67-26.75Q340.67-27.97 340.13-28.51L340.13-28.51L340.13-28.51Q339.58-29.06 338.37-29.06L338.37-29.06L325.89-29.06L325.89-33.98L343.55-33.98L343.55-33.98Q344.77-33.98 345.31-34.53L345.31-34.53L345.31-34.53Q345.86-35.07 345.86-36.29L345.86-36.29L345.86-43.78L345.86-43.78Q345.86-44.99 345.31-45.54L345.31-45.54L345.31-45.54Q344.77-46.08 343.55-46.08L343.55-46.08L313.86-46.08L313.86-46.08Q312.64-46.08 312.10-45.54L312.10-45.54L312.10-45.54Q311.55-44.99 311.55-43.78L311.55-43.78L311.55-2.30L311.55-2.30Q311.55-1.09 312.10-0.54L312.10-0.54L312.10-0.54Q312.64 0 313.86 0L313.86 0ZM319.17-6.40L340.10-6.40L340.10-5.76L318.53-5.76L318.53-40.32L340.10-40.32L340.10-39.68L319.17-39.68L319.17-23.62L334.91-23.62L334.91-22.98L319.17-22.98L319.17-6.40ZM402.69 0.64L370.11 0.64L370.11 0.64Q368.58 0.64 367.87-0.06L367.87-0.06L367.87-0.06Q367.17-0.77 367.17-2.30L367.17-2.30L367.17-43.78L367.17-43.78Q367.17-45.31 367.87-46.02L367.87-46.02L367.87-46.02Q368.58-46.72 370.11-46.72L370.11-46.72L380.03-46.72L380.03-46.72Q381.57-46.72 382.27-46.02L382.27-46.02L382.27-46.02Q382.98-45.31 382.98-43.78L382.98-43.78L382.98-12.74L390.46-12.74L390.46-22.46L390.46-22.46Q390.46-24 391.17-24.70L391.17-24.70L391.17-24.70Q391.87-25.41 393.41-25.41L393.41-25.41L402.69-25.41L402.69-25.41Q404.22-25.41 404.93-24.70L404.93-24.70L404.93-24.70Q405.63-24 405.63-22.46L405.63-22.46L405.63-2.30L405.63-2.30Q405.63-0.77 404.93-0.06L404.93-0.06L404.93-0.06Q404.22 0.64 402.69 0.64L402.69 0.64ZM370.11 0L402.69 0L402.69 0Q403.90 0 404.45-0.54L404.45-0.54L404.45-0.54Q404.99-1.09 404.99-2.30L404.99-2.30L404.99-22.46L404.99-22.46Q404.99-23.68 404.45-24.22L404.45-24.22L404.45-24.22Q403.90-24.77 402.69-24.77L402.69-24.77L393.41-24.77L393.41-24.77Q392.19-24.77 391.65-24.22L391.65-24.22L391.65-24.22Q391.10-23.68 391.10-22.46L391.10-22.46L391.10-12.10L382.34-12.10L382.34-43.78L382.34-43.78Q382.34-44.99 381.79-45.54L381.79-45.54L381.79-45.54Q381.25-46.08 380.03-46.08L380.03-46.08L370.11-46.08L370.11-46.08Q368.90-46.08 368.35-45.54L368.35-45.54L368.35-45.54Q367.81-44.99 367.81-43.78L367.81-43.78L367.81-2.30L367.81-2.30Q367.81-1.09 368.35-0.54L368.35-0.54L368.35-0.54Q368.90 0 370.11 0L370.11 0ZM398.34-5.76L374.78-5.76L374.78-40.32L375.42-40.32L375.42-6.40L397.70-6.40L397.70-19.01L398.34-19.01L398.34-5.76ZM445.89-9.92L445.89-2.30L445.89-2.30Q445.89-0.77 445.18-0.06L445.18-0.06L445.18-0.06Q444.48 0.64 442.94 0.64L442.94 0.64L427.33 0.64L427.33 0.64Q418.94 0.64 414.94-2.75L414.94-2.75L414.94-2.75Q410.94-6.14 410.94-13.06L410.94-13.06L410.94-32.96L410.94-32.96Q410.94-39.94 414.94-43.33L414.94-43.33L414.94-43.33Q418.94-46.72 427.33-46.72L427.33-46.72L442.94-46.72L442.94-46.72Q444.48-46.72 445.18-46.02L445.18-46.02L445.18-46.02Q445.89-45.31 445.89-43.78L445.89-43.78L445.89-36.03L445.89-36.03Q445.89-34.50 445.18-33.79L445.18-33.79L445.18-33.79Q444.48-33.09 442.94-33.09L442.94-33.09L430.08-33.09L430.08-33.09Q428.48-33.09 427.65-32.48L427.65-32.48L427.65-32.48Q426.82-31.87 426.82-30.53L426.82-30.53L426.82-15.30L426.82-15.30Q426.82-13.95 427.65-13.41L427.65-13.41L427.65-13.41Q428.48-12.86 430.08-12.86L430.08-12.86L442.94-12.86L442.94-12.86Q444.48-12.86 445.18-12.16L445.18-12.16L445.18-12.16Q445.89-11.46 445.89-9.92L445.89-9.92ZM427.33 0L442.94 0L442.94 0Q444.16 0 444.70-0.54L444.70-0.54L444.70-0.54Q445.25-1.09 445.25-2.30L445.25-2.30L445.25-9.92L445.25-9.92Q445.25-11.14 444.70-11.68L444.70-11.68L444.70-11.68Q444.16-12.22 442.94-12.22L442.94-12.22L430.08-12.22L430.08-12.22Q428.10-12.22 427.14-12.96L427.14-12.96L427.14-12.96Q426.18-13.70 426.18-15.30L426.18-15.30L426.18-30.53L426.18-30.53Q426.18-32.13 427.14-32.93L427.14-32.93L427.14-32.93Q428.10-33.73 430.08-33.73L430.08-33.73L442.94-33.73L442.94-33.73Q444.16-33.73 444.70-34.27L444.70-34.27L444.70-34.27Q445.25-34.82 445.25-36.03L445.25-36.03L445.25-43.78L445.25-43.78Q445.25-44.99 444.70-45.54L444.70-45.54L444.70-45.54Q444.16-46.08 442.94-46.08L442.94-46.08L427.33-46.08L427.33-46.08Q419.33-46.08 415.46-42.85L415.46-42.85L415.46-42.85Q411.58-39.62 411.58-32.96L411.58-32.96L411.58-13.06L411.58-13.06Q411.58-6.40 415.46-3.20L415.46-3.20L415.46-3.20Q419.33 0 427.33 0L427.33 0ZM428.74-6.40L439.42-6.40L439.42-5.76L428.74-5.76L428.74-5.76Q422.53-5.76 420.51-7.68L420.51-7.68L420.51-7.68Q418.50-9.60 418.50-14.02L418.50-14.02L418.50-31.94L418.50-31.94Q418.50-36.48 420.54-38.40L420.54-38.40L420.54-38.40Q422.59-40.32 428.74-40.32L428.74-40.32L439.42-40.32L439.42-39.68L428.74-39.68L428.74-39.68Q423.10-39.68 421.12-37.92L421.12-37.92L421.12-37.92Q419.14-36.16 419.14-31.94L419.14-31.94L419.14-14.02L419.14-14.02Q419.14-9.86 421.06-8.13L421.06-8.13L421.06-8.13Q422.98-6.40 428.74-6.40L428.74-6.40ZM492.74-33.02L492.74-13.06L492.74-13.06Q492.74-6.14 488.74-2.75L488.74-2.75L488.74-2.75Q484.74 0.64 476.35 0.64L476.35 0.64L454.78 0.64L454.78 0.64Q453.25 0.64 452.54-0.06L452.54-0.06L452.54-0.06Q451.84-0.77 451.84-2.30L451.84-2.30L451.84-43.78L451.84-43.78Q451.84-45.31 452.54-46.02L452.54-46.02L452.54-46.02Q453.25-46.72 454.78-46.72L454.78-46.72L476.35-46.72L476.35-46.72Q484.74-46.72 488.74-43.33L488.74-43.33L488.74-43.33Q492.74-39.94 492.74-33.02L492.74-33.02ZM454.78 0L476.35 0L476.35 0Q484.35 0 488.22-3.20L488.22-3.20L488.22-3.20Q492.10-6.40 492.10-13.06L492.10-13.06L492.10-33.02L492.10-33.02Q492.10-39.68 488.22-42.88L488.22-42.88L488.22-42.88Q484.35-46.08 476.35-46.08L476.35-46.08L454.78-46.08L454.78-46.08Q453.57-46.08 453.02-45.54L453.02-45.54L453.02-45.54Q452.48-44.99 452.48-43.78L452.48-43.78L452.48-2.30L452.48-2.30Q452.48-1.09 453.02-0.54L453.02-0.54L453.02-0.54Q453.57 0 454.78 0L454.78 0ZM474.94-5.76L459.46-5.76L459.46-40.32L474.94-40.32L474.94-40.32Q478.21-40.32 480.22-39.62L480.22-39.62L480.22-39.62Q482.24-38.91 483.33-37.73L483.33-37.73L483.33-37.73Q484.42-36.54 484.80-34.91L484.80-34.91L484.80-34.91Q485.18-33.28 485.18-31.42L485.18-31.42L485.18-14.46L485.18-14.46Q485.18-12.61 484.83-11.01L484.83-11.01L484.83-11.01Q484.48-9.41 483.39-8.26L483.39-8.26L483.39-8.26Q482.30-7.10 480.26-6.43L480.26-6.43L480.26-6.43Q478.21-5.76 474.94-5.76L474.94-5.76ZM474.94-39.68L474.94-39.68L460.10-39.68L460.10-6.40L474.94-6.40L474.94-6.40Q478.02-6.40 479.90-7.01L479.90-7.01L479.90-7.01Q481.79-7.62 482.82-8.67L482.82-8.67L482.82-8.67Q483.84-9.73 484.19-11.23L484.19-11.23L484.19-11.23Q484.54-12.74 484.54-14.46L484.54-14.46L484.54-31.42L484.54-31.42Q484.54-33.15 484.16-34.69L484.16-34.69L484.16-34.69Q483.78-36.22 482.75-37.31L482.75-37.31L482.75-37.31Q481.73-38.40 479.84-39.04L479.84-39.04L479.84-39.04Q477.95-39.68 474.94-39.68ZM467.01-12.10L467.01-33.86L474.62-33.86L474.62-33.86Q476.16-33.86 476.90-33.12L476.90-33.12L476.90-33.12Q477.63-32.38 477.63-30.78L477.63-30.78L477.63-15.23L477.63-15.23Q477.63-13.63 476.90-12.86L476.90-12.86L476.90-12.86Q476.16-12.10 474.62-12.10L474.62-12.10L467.01-12.10ZM474.62-33.22L474.62-33.22L467.65-33.22L467.65-12.74L474.62-12.74L474.62-12.74Q475.84-12.74 476.42-13.34L476.42-13.34L476.42-13.34Q476.99-13.95 476.99-15.23L476.99-15.23L476.99-30.78L476.99-30.78Q476.99-32 476.42-32.61L476.42-32.61L476.42-32.61Q475.84-33.22 474.62-33.22ZM506.69-19.39L506.69-19.39L506.69-17.41L531.65-17.41L531.65-19.39L531.65-19.39Q531.65-21.12 531.36-22.59L531.36-22.59L531.36-22.59Q531.07-24.06 530.62-25.34L530.62-25.34L526.21-35.78L526.21-35.78Q525.50-37.44 524.74-38.56L524.74-38.56L524.74-38.56Q523.97-39.68 522.18-39.68L522.18-39.68L515.90-39.68L515.90-39.68Q513.98-39.68 513.22-38.56L513.22-38.56L513.22-38.56Q512.45-37.44 511.81-35.84L511.81-35.84L507.71-25.34L507.71-25.34Q507.26-24.06 506.98-22.59L506.98-22.59L506.98-22.59Q506.69-21.12 506.69-19.39ZM513.92-22.91L516.93-32.64L516.93-32.64Q517.18-33.22 517.47-33.47L517.47-33.47L517.47-33.47Q517.76-33.73 518.14-33.73L518.14-33.73L519.74-33.73L519.74-33.73Q520.13-33.73 520.42-33.47L520.42-33.47L520.42-33.47Q520.70-33.22 520.96-32.64L520.96-32.64L523.97-22.91L513.92-22.91ZM523.07-23.55L520.32-32.45L520.38-32.38L520.38-32.38Q520.26-32.64 520.13-32.86L520.13-32.86L520.13-32.86Q520-33.09 519.74-33.09L519.74-33.09L518.14-33.09L518.14-33.09Q517.89-33.09 517.76-32.86L517.76-32.86L517.76-32.86Q517.63-32.64 517.50-32.38L517.50-32.38L517.57-32.45L514.82-23.55L523.07-23.55ZM532.29-5.76L531.65-5.76L531.65-16.77L506.69-16.77L506.69-5.76L506.05-5.76L506.05-19.39L506.05-19.39Q506.05-21.18 506.34-22.69L506.34-22.69L506.34-22.69Q506.62-24.19 507.14-25.60L507.14-25.60L511.23-36.10L511.23-36.10Q511.94-37.89 512.83-39.10L512.83-39.10L512.83-39.10Q513.73-40.32 515.90-40.32L515.90-40.32L522.18-40.32L522.18-40.32Q524.29-40.32 525.15-39.10L525.15-39.10L525.15-39.10Q526.02-37.89 526.78-36.03L526.78-36.03L531.20-25.60L531.20-25.60Q531.71-24.19 532-22.69L532-22.69L532-22.69Q532.29-21.18 532.29-19.39L532.29-19.39L532.29-5.76ZM513.28-2.30L513.28-2.30L513.28-11.26L524.61-11.26L524.61-2.30L524.61-2.30Q524.61-1.09 525.22-0.54L525.22-0.54L525.22-0.54Q525.82 0 527.10 0L527.10 0L536.77 0L536.77 0Q537.98 0 538.53-0.54L538.53-0.54L538.53-0.54Q539.07-1.09 539.07-2.30L539.07-2.30L539.07-19.20L539.07-19.20Q539.07-21.12 538.46-23.62L538.46-23.62L538.46-23.62Q537.86-26.11 536.58-29.44L536.58-29.44L531.01-43.97L531.01-43.97Q530.62-45.06 529.82-45.57L529.82-45.57L529.82-45.57Q529.02-46.08 527.81-46.08L527.81-46.08L510.59-46.08L510.59-46.08Q509.31-46.08 508.51-45.57L508.51-45.57L508.51-45.57Q507.71-45.06 507.33-43.97L507.33-43.97L501.76-29.44L501.76-29.44Q500.48-26.11 499.87-23.62L499.87-23.62L499.87-23.62Q499.26-21.12 499.26-19.20L499.26-19.20L499.26-2.30L499.26-2.30Q499.26-1.09 499.81-0.54L499.81-0.54L499.81-0.54Q500.35 0 501.57 0L501.57 0L510.98 0L510.98 0Q512.19 0 512.74-0.54L512.74-0.54L512.74-0.54Q513.28-1.09 513.28-2.30ZM510.98 0.64L501.57 0.64L501.57 0.64Q500.03 0.64 499.33-0.06L499.33-0.06L499.33-0.06Q498.62-0.77 498.62-2.30L498.62-2.30L498.62-19.20L498.62-19.20Q498.62-21.18 499.23-23.71L499.23-23.71L499.23-23.71Q499.84-26.24 501.18-29.70L501.18-29.70L506.75-44.16L506.75-44.16Q507.20-45.50 508.13-46.11L508.13-46.11L508.13-46.11Q509.06-46.72 510.59-46.72L510.59-46.72L527.81-46.72L527.81-46.72Q529.28-46.72 530.21-46.11L530.21-46.11L530.21-46.11Q531.14-45.50 531.58-44.22L531.58-44.22L537.15-29.70L537.15-29.70Q538.50-26.24 539.10-23.71L539.10-23.71L539.10-23.71Q539.71-21.18 539.71-19.20L539.71-19.20L539.71-2.30L539.71-2.30Q539.71-0.77 539.01-0.06L539.01-0.06L539.01-0.06Q538.30 0.64 536.77 0.64L536.77 0.64L527.10 0.64L527.10 0.64Q525.50 0.64 524.74-0.10L524.74-0.10L524.74-0.10Q523.97-0.83 523.97-2.30L523.97-2.30L523.97-10.62L513.92-10.62L513.92-2.30L513.92-2.30Q513.92-0.77 513.22-0.06L513.22-0.06L513.22-0.06Q512.51 0.64 510.98 0.64L510.98 0.64Z" fill="#ffd800"></path></g></g><style>text {
  font-size: 64px;
  font-family: Arial Black;
  dominant-baseline: central;
  text-anchor: middle;
}</style></svg>