<svg id="lcda" xmlns="http://www.w3.org/2000/svg" width="356" height="60" viewBox="0 0 356 60">
  <rect id="Rectangle_857" data-name="Rectangle 857" width="356" height="60" fill="none"/>
  <path id="Tracé_23" data-name="Tracé 23" d="M-17.1,421.3H2.6v1.382H-17.1Zm0,4.837v1.382h6.414v17.447h1.374V426.137H-17.1Zm11.854,0v18.829h1.432V427.519H2.543v-1.382H-5.246ZM8.384,421.3H7.067v23.608H24.705v-1.267H8.384V422.567H24.705V421.3Z" transform="translate(196.761 -395.426)" fill="#fff"/>
  <path id="Tracé_24" data-name="Tracé 24" d="M-102.593,438.574h10.48V437.25h-11.74v5.125h12.026v-1.267h-10.766Zm-1.26-9.962v4.952h11.74V432.3h-10.48v-2.361h10.766v-1.324h-12.026Zm-176.9,12.9a5.659,5.659,0,0,1-5.727-5.931,5.659,5.659,0,0,1,5.727-5.931,4.945,4.945,0,0,1,4.524,3.455l2.749-1.324A8.683,8.683,0,0,0-281.21,427a8.6,8.6,0,0,0-8.59,8.637,8.6,8.6,0,0,0,8.59,8.637,8.619,8.619,0,0,0,7.731-4.894l-2.806-1.324A4.873,4.873,0,0,1-280.752,441.511Z" transform="translate(313.293 -397.844)" fill="#fff"/>
  <path id="Tracé_25" data-name="Tracé 25" d="M-283.658,420.6c-7.387,0-12.942,4.952-12.942,12.265,0,7.255,5.555,12.265,12.942,12.265a11.105,11.105,0,0,0,10.709-6.91l-2.577-1.209a9.466,9.466,0,0,1-8.533,5.355,9.472,9.472,0,0,1-9.449-9.443,9.435,9.435,0,0,1,9.449-9.443,9.393,9.393,0,0,1,8.476,5.3l2.577-1.209A10.887,10.887,0,0,0-283.658,420.6Zm26.572,3.973a8.384,8.384,0,0,0-8.476,8.234,8.384,8.384,0,0,0,8.476,8.234,8.384,8.384,0,0,0,8.476-8.234A8.311,8.311,0,0,0-257.086,424.573Zm0,14.223a5.613,5.613,0,0,1-5.669-5.931,5.613,5.613,0,0,1,5.669-5.931,5.613,5.613,0,0,1,5.669,5.931A5.613,5.613,0,0,1-257.086,438.8Z" transform="translate(316.199 -395.129)" fill="#fff"/>
  <path id="Tracé_26" data-name="Tracé 26" d="M-237.215,420.6c-7.273,0-12.885,4.952-12.885,12.265,0,7.255,5.612,12.265,12.885,12.265s12.885-4.952,12.885-12.265S-229.885,420.6-237.215,420.6Zm0,22a9.927,9.927,0,0,1-10.022-9.789,9.891,9.891,0,0,1,10.022-9.789,9.927,9.927,0,0,1,10.022,9.789A9.854,9.854,0,0,1-237.215,442.6Zm33.1-10.365L-212.3,421h-7.33v23.666h7.1V432.692l8.7,11.977h6.872V421h-7.1Zm2.634-8.868h1.947v18.829h-2.634l-12.656-16.871H-215v16.871h-1.947V423.364h3.092l12.37,16.468V423.364Zm22.105-2.764c-7.387,0-12.942,4.952-12.942,12.265,0,7.255,5.555,12.265,12.942,12.265a11.105,11.105,0,0,0,10.709-6.91l-1.89-.864A9.976,9.976,0,0,1-179.547,443a10.024,10.024,0,0,1-10.022-10.077,10.1,10.1,0,0,1,10.022-10.077,10.053,10.053,0,0,1,8.991,5.585l1.947-.921A11.151,11.151,0,0,0-179.375,420.6Z" transform="translate(296.329 -395.129)" fill="#fff"/>
  <path id="Tracé_27" data-name="Tracé 27" d="M-132.754,441.977a5.659,5.659,0,0,1-5.727-5.931,5.659,5.659,0,0,1,5.727-5.931,4.945,4.945,0,0,1,4.524,3.455l2.405-1.094a8,8,0,0,0-7.158-4.376A8.063,8.063,0,0,0-141,436.161a8.063,8.063,0,0,0,8.017,8.061,7.936,7.936,0,0,0,7.158-4.491l-2.405-1.094A5.059,5.059,0,0,1-132.754,441.977Zm31.1-9.9c0-3.4-3.436-3.743-4.925-3.743h-6.357v7.658h7.273A3.653,3.653,0,0,0-101.657,432.073Zm-8.934,2.073V430.4h4.352c1.2,0,2.348.576,2.348,1.843,0,1.324-1.145,1.9-2.348,1.9Zm-2.291,4.319v9.386h2.291v-7.486h2.577l3.207,7.486h2.692l-4.41-9.386Z" transform="translate(249.707 -398.31)" fill="#fff"/>
  <path id="Tracé_28" data-name="Tracé 28" d="M-83.521,436.559a7.613,7.613,0,0,0,4.238-7.14c0-4.434-2.978-8.119-8.476-8.119H-100.3v23.666h2.348V422.912h8.819c4.524,0,7.387,2.476,7.387,6.276a6.121,6.121,0,0,1-4.7,6.219l4.467,9.559h2.749Zm14.317,3.858h12.713V438.69H-67.2V436.1h10.537v-1.612H-69.2Z" transform="translate(232.315 -395.426)" fill="#fff"/>
  <path id="Tracé_29" data-name="Tracé 29" d="M-51.449,443.354h-1.432V423.085h15.749V421.3H-55v23.666h17.867v-1.612Z" transform="translate(212.957 -395.426)" fill="#fff"/>
  <path id="Tracé_30" data-name="Tracé 30" d="M-46,431.549h12.542v-1.67H-44v-2.361h10.709v-1.5H-46Zm91.57,9.674V438.69H36.579V421.3H33.831v19.923Z" transform="translate(209.111 -395.426)" fill="#fff"/>
  <path id="Tracé_31" data-name="Tracé 31" d="M88.878,421.3H85.9v23.666h16.035V442.49H88.878Zm28.92,17.735a5.935,5.935,0,0,1,0-11.862,4.945,4.945,0,0,1,4.524,3.455l2.692-1.267a8.351,8.351,0,0,0-7.5-4.607,8.407,8.407,0,1,0,7.559,12.092l-2.749-1.267a4.76,4.76,0,0,1-4.524,3.455Z" transform="translate(152.747 -395.426)" fill="#fff"/>
  <path id="Tracé_32" data-name="Tracé 32" d="M131.942,420.6c-7.387,0-12.942,4.952-12.942,12.265,0,7.255,5.555,12.265,12.942,12.265a11.105,11.105,0,0,0,10.709-6.91l-2.291-1.037a9.674,9.674,0,1,1-.057-8.522l2.348-1.094C141.277,424.228,138.185,420.6,131.942,420.6Zm45.986,18.772-1.775,5.3h3.436l.859-2.764h8.476l.859,2.764H193.5l-1.89-5.3Z" transform="translate(138.602 -395.129)" fill="#fff"/>
  <path id="Tracé_33" data-name="Tracé 33" d="M226.234,423.891l7.731,21.075h2.978l-8.7-23.666h-8.876L210.6,444.966h3.322l7.445-21.075Z" transform="translate(99.459 -395.426)" fill="#fff"/>
  <path id="Tracé_34" data-name="Tracé 34" d="M207.128,425.1h-3.15l-4.7,13.3H212Zm-1.6,3.225,2.348,7.6h-4.639ZM178.609,421.3H167.9v23.666h11.167a11.837,11.837,0,0,0-.458-23.666Zm.515,21.133h-8.246V423.776h8.246a9.34,9.34,0,0,1,0,18.656Z" transform="translate(117.706 -395.426)" fill="#fff"/>
  <path id="Tracé_35" data-name="Tracé 35" d="M182.187,427.8H175.2v16.18h7.044a8.1,8.1,0,0,0-.057-16.18Zm-.344,13.647h-3.608V430.276h3.608a5.586,5.586,0,0,1,0,11.171Z" transform="translate(114.586 -398.183)" fill="#fff"/>
</svg>
