<?xml version="1.0" encoding="utf-8"?>
<!-- Generator: Adobe Illustrator 26.0.3, SVG Export Plug-In . SVG Version: 6.00 Build 0)  -->
<svg version="1.1" id="lcda" xmlns="http://www.w3.org/2000/svg" xmlns:xlink="http://www.w3.org/1999/xlink" x="0px" y="0px"
	 viewBox="0 0 1447.3 240" style="enable-background:new 0 0 1447.3 240;" xml:space="preserve">
<style type="text/css">
	.st0{fill:#1D1D1B;}
</style>
<g>
	<g>
		<g>
			<rect x="702.7" y="100.1" class="st0" width="83.3" height="5.8"/>
			<polygon class="st0" points="702.7,120.6 702.7,126.4 729.8,126.4 729.8,199.5 735.6,199.5 735.6,126.4 735.6,120.6 729.8,120.6 
							"/>
			<polygon class="st0" points="753,120.6 753,126.4 753,199.5 758.9,199.5 758.9,126.4 785.9,126.4 785.9,120.6 758.9,120.6 			"/>
		</g>
		<g>
			<polygon class="st0" points="810.5,100.1 805.1,100.1 805.1,105.5 805.1,194.1 805.1,199.4 810.5,199.4 879.2,199.4 879.2,194.1 
				810.5,194.1 810.5,105.5 879.2,105.5 879.2,100.1 			"/>
			<polygon class="st0" points="834,162.5 878.1,162.5 878.1,157.1 834,157.1 828.6,157.1 828.6,162.5 828.6,173.2 828.6,178.6 
				834,178.6 879.2,178.6 879.2,173.2 834,173.2 			"/>
			<polygon class="st0" points="828.6,120.8 828.6,126.2 828.6,136.2 828.6,141.6 834,141.6 878.1,141.6 878.1,136.2 834,136.2 
				834,126.2 879.2,126.2 879.2,120.8 834,120.8 			"/>
		</g>
		<path class="st0" d="M81.5,174.8c-14.5,0-24.1-11-24.1-24.9c0-13.9,9.7-24.9,24.1-24.9c8.9,0,16.7,6.7,19.2,14.4l11.7-5.5
			c-6-11.9-18.3-20.2-32.5-20.2c-20,0-36.4,16.3-36.4,36.2c0,20,16.3,36.2,36.4,36.2c14.4,0,26.8-8.4,32.7-20.5l-11.9-5.5
			C98.1,168.1,90.4,174.8,81.5,174.8z"/>
		<path class="st0" d="M81.5,98.5c-31.1,0-54.7,20.7-54.7,51.4c0,30.5,23.5,51.4,54.7,51.4c26.1,0,39.3-15.8,45.1-29.1l-10.8-5
			c-6.4,13.3-20.1,22.5-35.9,22.5c-22,0-39.9-17.8-39.9-39.8c0-21.9,17.9-39.8,39.9-39.8c15.7,0,29.2,9.1,35.8,22.2l11-5.1
			C120.6,113.7,107.5,98.5,81.5,98.5z"/>
		<path class="st0" d="M194,115.2c-19.7,0-35.7,15.5-35.7,34.6s16,34.6,35.7,34.6c19.7,0,35.7-15.5,35.7-34.6S213.7,115.2,194,115.2
			z M193.9,174.8c-14.5,0-23.8-11-23.8-24.9c0-13.9,9.4-24.9,23.8-24.9c14.5,0,23.8,11,23.8,24.9
			C217.8,163.8,208.4,174.8,193.9,174.8z"/>
		<path class="st0" d="M193.9,98.5c-30.7,0-54.4,20.9-54.4,51.4c0,30.5,23.7,51.4,54.4,51.4c30.7,0,54.4-20.9,54.4-51.4
			C248.3,119.4,224.6,98.5,193.9,98.5z M194,190.9c-23.3,0-42.2-18.4-42.2-41.1c0-22.7,18.9-41.1,42.2-41.1
			c23.3,0,42.2,18.4,42.2,41.1C236.2,172.5,217.3,190.9,194,190.9z"/>
		<path class="st0" d="M333.5,147.2L299,100.2h-31v99.4h30.1v-50.4l36.6,50.4h28.9v-99.4h-30.1V147.2z M344.6,110.1h8.3v79h-11.2
			l-53.4-70.9h-0.6v70.9h-8.3V110h13l52.2,69.3V110.1z"/>
		<path class="st0" d="M438,98.5c-31.1,0-54.7,20.7-54.7,51.4c0,30.5,23.5,51.4,54.7,51.4c26.1,0,39.3-15.8,45.1-29.1l-8-3.7
			c-6.9,14-21.4,23.7-38,23.7c-23.3,0-42.3-18.9-42.3-42.2c0-23.3,19-42.2,42.3-42.2c16.6,0,30.9,9.5,37.9,23.4l8.2-3.8
			C477.1,113.7,464,98.5,438,98.5z"/>
		<path class="st0" d="M438,174.8c-14.5,0-24.1-11-24.1-24.9c0-13.9,9.7-24.9,24.1-24.9c8.9,0,16.7,6.7,19.2,14.4l10.1-4.7
			c-5.6-11-17-18.5-30.2-18.5c-18.7,0-33.9,15.2-33.9,33.8c0,18.6,15.2,33.8,33.9,33.8c13.3,0,24.8-7.7,30.3-18.8l-10.2-4.7
			C454.7,168.1,446.9,174.8,438,174.8z"/>
		<path class="st0" d="M569.4,133.2c0-14.2-14.5-15.7-20.7-15.7h-26.8v32.2h30.7C562.9,149.7,569.4,143.4,569.4,133.2z M531.5,142
			v-15.6h18.3c5.1,0,9.8,2.4,9.8,7.7c0,5.5-4.8,7.9-9.8,7.9H531.5z"/>
		<polygon class="st0" points="521.9,160.2 521.9,199.5 531.5,199.5 531.5,168.3 542.4,168.3 556.1,199.5 567.3,199.5 549,160.2 		
			"/>
		<path class="st0" d="M572.3,164.4c7.9-3.9,17.9-13,17.9-30.1c0-18.6-12.5-34.1-35.8-34.1h-53v99.4h9.9v-92.6h37.3
			c19,0,31.3,10.3,31.3,26.3c0,13.3-7.9,23.2-19.9,26.1l18.8,40.2h11.6L572.3,164.4z"/>
		<g>
			<polygon class="st0" points="633.2,180.5 686.8,180.5 686.8,173.3 641.5,173.3 641.5,162.4 685.7,162.4 685.7,155.6 633.2,155.6 
							"/>
			<polygon class="st0" points="626.2,192.8 620,192.8 620,107.6 633.2,107.6 633.2,107.6 686.8,107.6 686.8,100.2 611.4,100.2 
				611.4,199.5 686.8,199.5 686.8,192.8 626.2,192.8 			"/>
			<polygon class="st0" points="633.2,143.3 685.7,143.3 685.7,136.2 641.5,136.2 641.5,126.4 686.8,126.4 686.8,119.9 633.2,119.9 
							"/>
		</g>
		<g>
			<polygon class="st0" points="1019.5,184 1019.5,173.3 981.8,173.3 981.8,100.1 970,100.1 970,184 			"/>
			<polygon class="st0" points="964.8,100.1 951.7,100.1 951.7,199.5 1019.5,199.5 1019.5,189.2 964.8,189.2 			"/>
			<path class="st0" d="M1086.9,174.8c-14.5,0-24.1-11-24.1-24.9c0-13.9,9.7-24.9,24.1-24.9c8.9,0,16.7,6.7,19.2,14.5l11.3-5.3
				c-5.9-11.5-17.8-19.4-31.6-19.4c-19.6,0-35.5,15.9-35.5,35.4c0,19.5,15.9,35.4,35.5,35.4c14,0,26.1-8.1,31.8-19.9l-11.5-5.3
				C1103.6,168.1,1095.8,174.8,1086.9,174.8z"/>
			<path class="st0" d="M1086.9,98.5c-31.1,0-54.7,20.7-54.7,51.4c0,30.5,23.5,51.4,54.7,51.4c26.1,0,39.3-15.8,45.1-29l-9.6-4.4
				c-6.6,13.6-20.6,22.9-36.7,22.9c-22.5,0-40.7-18.2-40.7-40.6c0-22.4,18.3-40.6,40.7-40.6c15.9,0,29.7,9.2,36.4,22.5l9.8-4.6
				C1126.1,113.7,1112.9,98.5,1086.9,98.5z"/>
			<polygon class="st0" points="1281.1,177.4 1273.2,199.6 1287.8,199.6 1291.4,188 1327.2,188 1330.8,199.6 1346.6,199.6 
				1338.5,177.4 			"/>
			<polygon class="st0" points="1319.6,111 1352.2,199.6 1364.9,199.6 1328.2,100.2 1290.4,100.2 1253.7,199.6 1267.6,199.6 
				1298.9,111 			"/>
			<path class="st0" d="M1316,116.2h-13.3l-19.7,55.9h53.6L1316,116.2z M1309.3,129.7l9.8,32h-19.7L1309.3,129.7z"/>
			<path class="st0" d="M1195.7,100.1c-0.9,0-1.8,0-2.6,0.1h-42.7v28.9v41.5v29h47.1c26.7-0.9,48.1-22.9,48.1-49.8
				C1245.6,122.4,1223.3,100.1,1195.7,100.1z M1197.6,189c-0.3,0-2.8,0-2.8,0h0h-32.1v-78.5h33c0.5,0,0.9,0,1.4,0.1l0.6,0
				c21,1,37.5,18.2,37.5,39.2C1235.1,170.7,1218.7,187.9,1197.6,189z"/>
			<path class="st0" d="M1197.4,115.9l-0.7,0c-0.3,0-0.7,0-1,0H1168v68h26.8c0.2,0,2.3,0,2.6,0c18.2-0.9,32.4-15.8,32.4-33.9
				C1229.8,131.6,1215.6,116.7,1197.4,115.9z M1195.8,173.2L1195.8,173.2L1195.8,173.2l-15.3,0v-5.6v-35.7v-5.6h15.3h0.1v0
				c13,0,23.5,10.5,23.5,23.5C1219.3,162.7,1208.8,173.2,1195.8,173.2z"/>
		</g>
	</g>
	<path class="st0" d="M1395,114h-4.9v6.6h5c2.5,0,3.8-1.3,3.8-3.3C1398.9,115.1,1397.4,114,1395,114 M1399.1,124l5.5,8.1h-5.8
		l-4.8-7.2h-3.9v7.2h-5v-22.5h10c5.4,0,8.8,2.7,8.8,7.4C1404,120.7,1402,123,1399.1,124 M1393.9,102.7c-10.7,0-18.7,8.5-18.7,18.9
		c0,10.4,8,18.7,18.6,18.7c10.7,0,18.7-8.5,18.7-18.9C1412.5,111,1404.6,102.7,1393.9,102.7 M1393.8,142.6
		c-11.8,0-21.1-9.5-21.1-21.1c0-11.6,9.4-21.2,21.2-21.2c11.8,0,21.1,9.5,21.1,21.1C1415,133,1405.7,142.6,1393.8,142.6"/>
</g>
</svg>
