<svg xmlns="http://www.w3.org/2000/svg" width="200" height="30.188" viewBox="0 0 200 30.188">
  <g id="Groupe_15" data-name="Groupe 15" transform="translate(0.372 0.453)">
    <rect id="Rectangle_861" data-name="Rectangle 861" width="200" height="30" transform="translate(-0.372 -0.453)" fill="none"/>
    <path id="Tracé_17" data-name="Tracé 17" d="M22.352,25.636a19.8,19.8,0,0,1-1.829-7.925c-.068-1.084-.068-7.993-.068-12.124V.168H21.4V5.586c0,4.064.068,11.041.068,12.057.2,3.658.677,5.486,1.761,7.586a9.891,9.891,0,0,0,4,4.4H25.6a11.021,11.021,0,0,1-3.251-4M0,29.7H2.506V.1H0Z" transform="translate(0 -0.032)"/>
    <path id="Tracé_18" data-name="Tracé 18" d="M6.3,29.667H8.535V.068H6.3Zm4.132-7.315c-.2-3.387-.2-7.518-.2-7.586V.068H11.99V15.1c0,1.016.068,4.335.2,7.18.2,3.251.271,5.283.61,7.383H10.974c-.2-2.1-.339-4.2-.542-7.315m3.658.271c-.339-3.454-.406-7.18-.406-7.654V0h1.422V15.037c0,.406,0,4.132.339,7.518a36.2,36.2,0,0,0,1.151,7.18h-1.49a54.489,54.489,0,0,1-1.016-7.112m3.251.948a71.693,71.693,0,0,1-.61-8.67V.068h1.355V14.9s0,1.422.068,3.183.2,3.929.406,5.283c.61,3.251,1.084,4.741,2.032,6.3H19.1a18.356,18.356,0,0,1-1.761-6.1" transform="translate(-2.033)"/>
    <path id="Tracé_19" data-name="Tracé 19" d="M26.745,22.858A65.087,65.087,0,0,1,26,14.73V.1h1.084V14.663s.068,1.219.135,2.777a33.34,33.34,0,0,0,.61,5.148c.61,3.116,1.761,5.554,3.387,7.044h-1.49a14.92,14.92,0,0,1-2.98-6.773m87.376-4.267a3.188,3.188,0,0,1,3.319-2.574h.068a2.982,2.982,0,0,1,3.251,2.574h-6.638m9.279,2.167a4.165,4.165,0,0,0,.068-.948,6.121,6.121,0,0,0-2.913-5.351,5.721,5.721,0,0,0-2.438-.745h-.745a1.682,1.682,0,0,0-.61.068,6.023,6.023,0,0,0-5.419,6.164,6.083,6.083,0,0,0,11.718,2.371h-2.913a3.2,3.2,0,0,1-2.777,1.355,3.087,3.087,0,0,1-3.251-2.777" transform="translate(-8.389 -0.032)"/>
    <path id="Tracé_20" data-name="Tracé 20" d="M97.161,18.405v-1.49h-2.98V28.769h2.98V22.537a3.038,3.038,0,0,1,.068-.745,2.826,2.826,0,0,1,.61-1.084,3,3,0,0,1,1.016-.813,4.032,4.032,0,0,1,2.777-.2l.068-2.777a4.3,4.3,0,0,0-4.538,1.49M44.6,19.489a9.889,9.889,0,1,1,19.778,0,9.889,9.889,0,1,1-19.778,0m16.73,0c0-4.064-2.845-7.18-6.841-7.18a6.837,6.837,0,0,0-6.909,7.18,6.876,6.876,0,0,0,6.909,7.18c4,.068,6.841-3.048,6.841-7.18" transform="translate(-14.391 -3.098)"/>
    <path id="Tracé_21" data-name="Tracé 21" d="M83.544,15.87a4.516,4.516,0,0,0-4.132,2.3V7.606H76.5V28.062h2.913l-.068-2.167a4.5,4.5,0,0,0,4.132,2.438c3.048,0,5.554-2.574,5.554-6.231S86.66,15.87,83.544,15.87m-.406,9.821c-2.1,0-3.387-1.422-3.387-3.725a3.328,3.328,0,0,1,3.387-3.59c2.032,0,3.319,1.422,3.319,3.59.068,2.3-1.219,3.725-3.319,3.725m32.173,2.3h2.913V18.579h2.913V16.141h-2.913v-3.59c0-1.964,1.016-2.777,2.438-2.777s2.438.745,2.438,2.777V27.926h2.913V12.348c0-3.454-2.438-5.148-5.283-5.148a4.975,4.975,0,0,0-5.215,5.351v3.59h-2.1v2.438h1.9M139.9,27.994h3.116l3.183-4.267,2.845,4.267h3.387l-4.606-6.435,3.929-5.419h-3.116L146.2,19.392l-2.3-3.251h-3.387l4.064,5.622" transform="translate(-24.684 -2.323)"/>
    <path id="Tracé_22" data-name="Tracé 22" d="M109.089,24.986a4.166,4.166,0,0,0,.068-.948,6.2,6.2,0,0,0-2.913-5.351,5.174,5.174,0,0,0-2.506-.745,1.537,1.537,0,0,1-.271-.068h-.339a1.5,1.5,0,0,0-.61.068A6.023,6.023,0,0,0,97.1,24.105a6.083,6.083,0,0,0,11.718,2.371h-2.913a3.253,3.253,0,0,1-2.777,1.422,3.092,3.092,0,0,1-3.251-2.777l9.212-.135Zm-9.279-1.964a3.162,3.162,0,0,1,3.251-2.777h.068a3.137,3.137,0,0,1,3.251,2.777m56.083-4.877a2.428,2.428,0,0,1-2.438-2.438,2.487,2.487,0,0,1,2.438-2.506,2.387,2.387,0,0,1,2.438,2.438,2.487,2.487,0,0,1-2.438,2.506m0-4.674a2.156,2.156,0,0,0-2.167,2.235,2.1,2.1,0,0,0,2.167,2.167,2.212,2.212,0,0,0,2.235-2.235,2.241,2.241,0,0,0-2.235-2.167m.61,2.438.61.948H163l-.61-.881h-.474v.881h-.542V14.284h1.151c.61,0,1.084.271,1.084.881a.734.734,0,0,1-.542.745m-.542-1.151h-.61V15.5h.61a.359.359,0,0,0,.406-.406c.068-.2-.068-.339-.406-.339" transform="translate(-31.331 -4.259)"/>
  </g>
</svg>
